<?xml version="1.0" encoding="UTF-8" standalone="no"?>
<svg
   xmlns:dc="http://purl.org/dc/elements/1.1/"
   xmlns:cc="http://creativecommons.org/ns#"
   xmlns:rdf="http://www.w3.org/1999/02/22-rdf-syntax-ns#"
   xmlns:svg="http://www.w3.org/2000/svg"
   xmlns="http://www.w3.org/2000/svg"
   xmlns:xlink="http://www.w3.org/1999/xlink"
   xmlns:sodipodi="http://sodipodi.sourceforge.net/DTD/sodipodi-0.dtd"
   xmlns:inkscape="http://www.inkscape.org/namespaces/inkscape"
   width="1024"
   height="1024"
   viewBox="0 0 270.92992 270.92992"
   version="1.1"
   id="svg8"
   inkscape:version="1.0alpha2 (863a58d, 2019-08-17)"
   sodipodi:docname="boat_src.svg"
   inkscape:export-filename="/Users/shov/Projects/Shov/mido3117/sem9/rPOdMobileP/assets/icon.png"
   inkscape:export-xdpi="96"
   inkscape:export-ydpi="96">
  <defs
     id="defs2">
    <linearGradient
       inkscape:collect="always"
       id="linearGradient980">
      <stop
         style="stop-color:#917c6f;stop-opacity:1;"
         offset="0"
         id="stop976" />
      <stop
         style="stop-color:#362e29;stop-opacity:1"
         offset="1"
         id="stop978" />
    </linearGradient>
    <linearGradient
       id="linearGradient967"
       inkscape:collect="always">
      <stop
         id="stop971"
         offset="0"
         style="stop-color:#6c5d53;stop-opacity:1;" />
      <stop
         id="stop973"
         offset="1"
         style="stop-color:#105b5b;stop-opacity:1" />
    </linearGradient>
    <linearGradient
       inkscape:collect="always"
       xlink:href="#linearGradient967"
       id="linearGradient969"
       x1="68.247124"
       y1="57.662884"
       x2="68.052406"
       y2="65.390114"
       gradientUnits="userSpaceOnUse" />
    <linearGradient
       inkscape:collect="always"
       xlink:href="#linearGradient980"
       id="linearGradient982"
       x1="269.98984"
       y1="171.93591"
       x2="268.24435"
       y2="211.61151"
       gradientUnits="userSpaceOnUse" />
  </defs>
  <sodipodi:namedview
     inkscape:guide-bbox="true"
     showguides="true"
     id="base"
     pagecolor="#ffffff"
     bordercolor="#666666"
     borderopacity="1.0"
     inkscape:pageopacity="0.0"
     inkscape:pageshadow="2"
     inkscape:zoom="0.26167763"
     inkscape:cx="931.01363"
     inkscape:cy="674.53199"
     inkscape:document-units="px"
     inkscape:current-layer="layer1"
     inkscape:document-rotation="0"
     showgrid="true"
     units="px"
     inkscape:snap-grids="false"
     inkscape:window-width="1680"
     inkscape:window-height="907"
     inkscape:window-x="0"
     inkscape:window-y="25"
     inkscape:window-maximized="0">
    <inkscape:grid
       type="xygrid"
       id="grid833" />
  </sodipodi:namedview>
  <metadata
     id="metadata5">
    <rdf:RDF>
      <cc:Work
         rdf:about="">
        <dc:format>image/svg+xml</dc:format>
        <dc:type
           rdf:resource="http://purl.org/dc/dcmitype/StillImage" />
        <dc:title></dc:title>
      </cc:Work>
    </rdf:RDF>
  </metadata>
  <g
     sodipodi:insensitive="true"
     inkscape:groupmode="layer"
     id="layer2"
     inkscape:label="Layer 2"
     style="display:inline">
    <rect
       style="vector-effect:none;fill:#afdbed;fill-opacity:0.992157;stroke:#ffffff;stroke-width:1.50295;stroke-linecap:round;stroke-linejoin:round;stroke-dasharray:1.50295, 4.50885;paint-order:stroke markers fill;stop-color:#000000"
       id="rect836"
       width="271.53467"
       height="272.59299"
       x="0"
       y="0" />
  </g>
  <g
     sodipodi:insensitive="true"
     inkscape:label="Layer 5"
     id="layer5"
     inkscape:groupmode="layer">
    <path
       sodipodi:nodetypes="cccc"
       inkscape:connector-curvature="0"
       id="path876"
       d="m -61.231371,221.49125 124.724729,6.45119 129.266722,-7.65653 92.98632,7.25289"
       style="fill:none;stroke:#000000;stroke-width:0.264997;stroke-linecap:butt;stroke-linejoin:round;stroke-miterlimit:4;stroke-dasharray:none;stroke-opacity:1" />
    <path
       sodipodi:nodetypes="cccccc"
       inkscape:connector-curvature="0"
       id="path880"
       d="M 290.28207,156.48017 C 241.7906,191.23162 190.52565,206.56866 130.02218,157.23611 43.529232,88.069256 -0.923678,126.10451 -48.380348,156.48017 l -9.07131,194.27732 383.263038,-20.41047 z"
       style="fill:#4861d6;fill-opacity:0.992157;stroke:none;stroke-width:0.26458px;stroke-linecap:butt;stroke-linejoin:miter;stroke-opacity:1" />
  </g>
  <g
     sodipodi:insensitive="true"
     inkscape:groupmode="layer"
     id="layer4"
     inkscape:label="Layer 4"
     style="display:inline" />
  <g
     sodipodi:insensitive="true"
     inkscape:groupmode="layer"
     id="layer3"
     inkscape:label="Layer 3"
     style="display:inline" />
  <g
     sodipodi:insensitive="true"
     inkscape:label="Layer 1"
     inkscape:groupmode="layer"
     id="layer1"
     style="display:inline">
    <g
       transform="matrix(1.5783558,0.30896614,-0.30896614,1.5783558,42.856427,70.753479)"
       id="g929">
      <path
         style="display:inline;fill:#ac9d93;fill-opacity:0.992157;stroke:#ffffff;stroke-width:0.275997;stroke-linecap:butt;stroke-linejoin:miter;stroke-miterlimit:4;stroke-dasharray:none;stroke-opacity:1"
         d="M 0.56062636,40.73884 30.655837,38.666041 69.90423,38.241943 c 12.75516,-0.02303 26.64308,0.420369 42.97168,1.868752 5.20419,0.637997 10.86619,1.886417 16.69989,3.363759 l 5.1953,5.980013"
         id="path840"
         inkscape:connector-curvature="0"
         sodipodi:nodetypes="cccccc" />
      <path
         inkscape:connector-curvature="0"
         id="path949"
         d="m 268.93799,195.99322 c -32.2547,-0.94618 -78.22474,-2.87714 -102.15565,-4.29102 l -43.51074,-2.57069 -52.618271,-15.8954 c -28.94005,-8.74247 -51.433247,-16.1424 -49.984881,-16.44429 2.435508,-0.50765 468.717642,29.21642 477.173862,30.41839 4.36585,0.62056 -20.50415,4.62898 -44.28256,7.13726 -25.49943,2.6898 -120.24078,3.53435 -184.62176,1.64575 z"
         style="display:inline;vector-effect:none;fill:url(#linearGradient982);fill-opacity:1;stroke:#917d70;stroke-width:3.78331;stroke-linecap:round;stroke-linejoin:round;stroke-miterlimit:4;stroke-dasharray:none;stroke-dashoffset:0;stroke-opacity:1;paint-order:stroke markers fill;stop-color:#000000"
         transform="scale(0.26458)" />
      <path
         inkscape:connector-curvature="0"
         id="path951"
         d="m 12.467935,156.52629 c -3.9187516,-1.19728 -7.1003957,-2.20148 -7.0703197,-2.23156 0.058334,-0.0583 13.9268197,0.80667 14.0101117,0.87383 0.02713,0.0219 -0.05863,0.15831 -0.190565,0.30317 -0.131938,0.14486 -0.299253,0.37865 -0.37181,0.51953 -0.322962,0.62707 -0.01,1.89136 0.597058,2.4117 0.206913,0.17737 0.325428,0.31748 0.263368,0.31135 -0.06206,-0.006 -3.319091,-0.99074 -7.237843,-2.18802 z"
         style="display:inline;vector-effect:none;fill:#ac9d93;fill-opacity:0.992157;stroke:#ffffff;stroke-width:0.44366;stroke-linecap:round;stroke-linejoin:round;stroke-miterlimit:4;stroke-dasharray:none;stroke-dashoffset:0;stroke-opacity:1;paint-order:stroke markers fill;stop-color:#000000"
         transform="scale(0.26458)" />
      <path
         inkscape:connector-curvature="0"
         id="path953"
         d="m 499.73099,188.77413 c 0.0953,-0.10143 0.25872,-0.4357 0.36318,-0.74282 0.19751,-0.58072 0.19266,-0.97196 -0.0186,-1.49502 l -0.091,-0.22545 0.41961,0.0464 c 0.23078,0.0255 2.16306,0.15726 4.29396,0.29281 3.36777,0.21422 4.18855,0.30346 4.05153,0.44048 -0.0654,0.0654 -8.82242,1.86805 -9.07467,1.86805 -0.0869,0 -0.0724,-0.0477 0.056,-0.18441 z"
         style="display:inline;vector-effect:none;fill:#917d70;fill-opacity:1;stroke:#917d70;stroke-width:0.302224;stroke-linecap:round;stroke-linejoin:round;stroke-miterlimit:4;stroke-dasharray:none;stroke-dashoffset:0;stroke-opacity:1;paint-order:stroke markers fill;stop-color:#000000"
         transform="scale(0.26458)" />
      <path
         inkscape:connector-curvature="0"
         id="path843"
         d="m 110.82819,12.131683 -2.35749,5.103628 1.41418,0.612195 -0.97553,4.763487 9.58241,-1.827839 0.14131,-7.74221 z"
         style="display:inline;fill:#fff0c3;fill-opacity:0.992157;stroke:#000000;stroke-width:0.26458px;stroke-linecap:butt;stroke-linejoin:miter;stroke-opacity:1" />
      <path
         inkscape:connector-curvature="0"
         id="path845"
         d="m 110.82819,12.131683 v 0 0 l -1.27278,-2.5290971 10.27449,1.6956361 -1.19683,1.742722"
         style="display:inline;fill:none;stroke:#000000;stroke-width:0.26458px;stroke-linecap:butt;stroke-linejoin:miter;stroke-opacity:1" />
      <path
         sodipodi:nodetypes="cccc"
         inkscape:connector-curvature="0"
         id="path847"
         d="m 109.55541,9.6025859 -2.58964,-4.3076485 c 5.2234,1.510135 9.87477,3.3915455 15.25445,3.9546372 l -2.39032,2.0486474"
         style="display:inline;fill:#ffffff;fill-opacity:0.992157;stroke:#000000;stroke-width:0.26458px;stroke-linecap:butt;stroke-linejoin:miter;stroke-opacity:1" />
      <path
         inkscape:connector-curvature="0"
         id="path849"
         d="m 118.49176,20.783154 -11.48167,3.058154 2.39779,2.643394 -4.63082,18.585356 -0.81082,8.466007 17.35872,0.812541 -2.8332,-33.565452"
         style="display:inline;fill:#ffffff;fill-opacity:0.992157;stroke:#000000;stroke-width:0.26458px;stroke-linecap:butt;stroke-linejoin:miter;stroke-opacity:1" />
      <path
         inkscape:connector-curvature="0"
         id="path851"
         d="m 114.00479,26.461546 3.51623,-1.76511 3.71303,2.371828 -2.72269,12.35267 -2.92413,5.283208 -6.51716,-1.368725 z"
         style="display:inline;fill:#ffffff;fill-opacity:0.992157;stroke:#000000;stroke-width:0.26458px;stroke-linecap:butt;stroke-linejoin:miter;stroke-opacity:1" />
      <path
         inkscape:connector-curvature="0"
         id="path853"
         d="m 108.16288,31.067774 -3.89848,10.59502 1.23674,0.204104"
         style="display:inline;fill:#ffffff;fill-opacity:0.992157;stroke:#000000;stroke-width:0.26458px;stroke-linecap:butt;stroke-linejoin:miter;stroke-opacity:1" />
      <path
         inkscape:connector-curvature="0"
         id="path855"
         d="m 30.179767,47.342702 c 0.817823,-0.649015 1.757478,-1.006568 2.699788,-1.446314 0.506734,-0.236476 0.99018,-0.544934 1.542737,-0.674946 0.896646,-0.210976 3.122216,-0.325338 4.04968,-0.192842 0.419444,0.05992 0.993897,0.244774 1.349895,0.482105 0.07273,0.04848 0.345118,0.578525 0.385684,0.578525 0.0071,0 -0.0088,-0.27157 0,-0.289263 0.102561,-0.205126 0.261481,-0.392224 0.385683,-0.578525 0.481903,-0.722859 1.505193,-2.224795 2.217683,-2.699787 0.03875,-0.02582 0.316478,-0.16563 0.385684,-0.09642 0.04545,0.04545 0,0.128559 0,0.192841 0,0.471003 0.142466,1.69386 0,2.12126 -0.140995,0.422981 -0.37441,0.822688 -0.482105,1.253474 -0.03038,0.121509 -0.364392,0.69624 -0.192841,0.867788 0.0404,0.0404 0.230824,0.0672 0.289262,0.09642 0.17674,0.08837 0.245615,0.342039 0.385684,0.482105 0.165934,0.165936 0.351415,0.189651 0.482104,0.385686 0.01783,0.02674 0,0.06428 0,0.09642 0.09642,0.1607 0.176819,0.332177 0.289263,0.482104 0.08182,0.109086 0.207446,0.180174 0.289263,0.289263 0.165587,0.220781 0.482104,0.71997 0.482104,0.578525 0,-0.03214 -0.06767,0.01437 -0.09642,0 -0.04065,-0.02032 -0.05577,-0.07609 -0.09642,-0.09642 -0.05749,-0.02875 -0.131033,0.01767 -0.192842,0 -0.601535,-0.171868 -1.217642,-0.466825 -1.831996,-0.578525 -0.349693,-0.06358 -1.109199,-0.02429 -1.446316,-0.192842 -0.08889,-0.04445 -0.157193,-0.162457 -0.289263,-0.09642 -0.154274,0.07714 -0.23141,0.308545 -0.385684,0.385684 -0.09888,0.04944 -0.286807,0.04698 -0.385683,0.09642 -0.238802,-0.05346 -0.241948,0.217394 -0.385684,0.289262 -0.369885,0.184944 -0.955964,0.306897 -1.349895,0.385684 -0.214124,0.04283 -0.463303,-0.05291 -0.674946,0 -0.582671,0.145667 -2.205028,0.236474 -2.796209,0 -0.331875,-0.13275 -0.844944,-0.274034 -1.157053,-0.482105 -0.02674,-0.01783 0.02674,-0.07859 0,-0.09642 -0.144011,-0.09601 -0.317906,-0.138109 -0.482104,-0.192842 -0.174938,-0.05831 -0.407763,-0.0395 -0.578526,-0.09642 C 31.7824,48.326878 30.794286,47.95722 30.179767,47.342702 Z"
         style="display:inline;fill:#57a5e1;fill-opacity:0.992157;stroke:#92c9ff;stroke-width:0.26458px;stroke-linecap:butt;stroke-linejoin:miter;stroke-opacity:1" />
      <path
         sodipodi:nodetypes="ccsssscsccsccsccscscsccccccc"
         inkscape:connector-curvature="0"
         id="path857"
         d="m 46.474914,47.14986 c 0.803508,-1.157051 1.591742,-2.324859 2.410525,-3.471155 0.05604,-0.07846 0,0.192842 0,0.289263 v 1.446316 c 0,0.432498 -0.197464,2.405903 0.09642,2.699787 0.14712,0.14712 0.873665,0 1.06063,0 0.780125,0 1.546198,-0.03156 2.314104,0.09642 0.299634,0.04994 0.658646,0.192842 0.964212,0.192842 0.163883,0 0.597988,-0.01947 0.482104,0.09642 -0.01934,0.01934 -0.656325,0.0504 -0.771367,0.09642 -0.353558,0.141423 -0.789007,0.44469 -1.157053,0.578525 -0.625057,0.227293 -1.379147,0.224261 -2.024842,0.385684 -0.916055,0.229015 -0.270257,0.27026 -0.674946,0.674946 -0.136359,0.136362 -0.385683,0 -0.578525,0 -0.932719,0 -2.45094,0.179372 -3.278313,-0.09642 -0.268258,-0.08942 -0.517548,0.03049 -0.77137,-0.09642 -0.209246,-0.104623 -0.897648,0.162982 -1.06063,0 -0.02379,-0.02379 -0.02379,-0.554737 0,-0.578525 0.02273,-0.02273 0.07369,0.02273 0.09642,0 0.04545,-0.04545 -0.04545,-0.147387 0,-0.192842 0.03214,-0.03214 0.06428,0.06428 0.09642,0.09642 0.150538,0.150538 1.294281,0.400489 1.446316,0.09642 0.01437,-0.02875 0,-0.06428 0,-0.09642 0.06428,-0.06428 0.142416,-0.117204 0.192842,-0.192842 0.100223,-0.150337 0.03859,-0.906263 0,-1.06063 -0.03106,-0.124238 -0.377042,-0.972855 -0.192842,-1.157053 0.06211,-0.06211 0.294679,0.03033 0.385684,0 0.159928,-0.05331 0.809556,0.192844 0.964211,0.192844"
         style="display:inline;fill:#e1ce57;fill-opacity:0.992157;stroke:#f0ff00;stroke-width:0.26458px;stroke-linecap:butt;stroke-linejoin:miter;stroke-opacity:1" />
      <path
         inkscape:connector-curvature="0"
         id="path859"
         d="m 60.552377,48.499755 c -0.11867,-1.024102 0.414189,-2.83562 -0.09642,-3.856841 -0.01437,-0.02875 -0.07369,0.02273 -0.09642,0 -0.06728,-0.06727 -0.303987,-0.45598 -0.385684,-0.578525 -0.01783,-0.02674 0.02273,-0.07369 0,-0.09642 -0.335728,-0.335728 -0.389477,-0.25297 -0.771367,-0.482105 -0.477284,-0.286368 -0.826021,-0.525268 -1.349895,-0.674946 -0.383461,-0.109562 -1.575349,-0.65864 -1.928418,-0.482104 -0.30778,0.15389 0.83416,1.865625 0.578526,2.121259 -0.01029,0.01029 -2.164069,-0.192841 -2.410525,-0.192841 -0.128562,0 -0.385684,-0.12856 -0.385684,0 0,0.108213 0.1664,0.166402 0.192842,0.192841 0.0625,0.0625 0.350172,0.9287 0.482105,1.060633 0.02273,0.02273 0.07369,-0.02273 0.09642,0 0.0404,0.0404 0.0672,0.230825 0.09642,0.289262 0.04066,0.08131 0.192842,0.101935 0.192842,0.192842 0,0.06428 -0.128562,0 -0.192842,0 -0.23899,0 -1.931659,0.292504 -2.024841,0.385684 -0.01543,0.01543 0.09642,0.181436 0.09642,0.289262 0,0.322436 -0.03599,0.602973 0.09642,0.867788 0.02875,0.0575 -0.04545,0.14739 0,0.192845 0.02273,0.02273 0.09642,0.03214 0.09642,0 0,-0.03214 -0.12856,0 -0.09642,0 0.128562,0 0.260963,-0.03118 0.385686,0 0.169493,0.04237 0.343674,0.220046 0.482104,0.289263 0.09375,0.04687 0.33543,0.435935 0.192842,0.578525 -0.06965,0.06965 -0.245945,0.219395 -0.385683,0.289263 -0.0575,0.02875 -0.250338,-0.02875 -0.192842,0 0.0909,0.04545 0.190659,0.07177 0.289263,0.09642 0.643561,0.160892 1.174542,0.607005 1.831996,0.771368 0.477845,0.11946 1.81685,0.179297 2.314104,0.09642 0.120519,-0.02008 1.991269,-0.684703 2.121263,-0.771367 0.02674,-0.01783 -0.02674,-0.07859 0,-0.09642 0.136359,-0.09091 0.366221,0.01947 0.482104,-0.09642 0.113635,-0.113635 0.192842,-0.257122 0.289263,-0.385684 z"
         style="display:inline;fill:#e56331;fill-opacity:0.992157;stroke:#c01616;stroke-width:0.26458px;stroke-linecap:butt;stroke-linejoin:miter;stroke-opacity:1" />
      <path
         inkscape:connector-curvature="0"
         id="path861"
         d="m 62.287955,49.656806 c 0.578526,-0.932068 0.986143,-1.995087 1.735579,-2.796209 0.245485,-0.262416 0.705688,-0.136798 1.06063,-0.192842 0.735646,-0.116153 1.662896,-0.203223 2.410525,-0.09642 0.045,0.0064 0.05464,0.07852 0.09642,0.09642 0.186838,0.08007 0.38749,0.123377 0.578525,0.192842 0.230036,0.08365 0.501866,0.116183 0.674946,0.289263 0.366271,0.366271 0.543807,0.89477 0.77137,1.349895 0.134012,0.268027 0.186926,0.958296 0.385683,1.157051 0.04286,0.04285 0.182129,-0.07499 0.09642,0.09642 -0.04066,0.08131 -0.111533,0.152189 -0.192841,0.192841 -0.0575,0.02875 -0.131862,-0.02032 -0.192842,0 -0.17556,0.05852 -0.306548,0.134325 -0.482107,0.192842 -0.531377,0.177126 -1.694482,-0.07745 -2.314102,0 -0.363062,0.04538 -0.70178,0.14158 -1.060632,0.192845 -0.184523,0.02635 -0.394947,-0.03672 -0.578525,0 -0.08948,0.01788 -2.423889,0.179477 -2.506946,0.09642 -0.08035,-0.08035 -0.01606,-0.305333 -0.09642,-0.385686 -0.02273,-0.02273 -0.06428,0 -0.09642,0 -0.09642,-0.128559 -0.192842,-0.257121 -0.289263,-0.385682 z"
         style="display:inline;fill:#2b9413;fill-opacity:0.992157;stroke:#00caff;stroke-width:0.26458px;stroke-linecap:butt;stroke-linejoin:miter;stroke-opacity:1" />
      <path
         inkscape:connector-curvature="0"
         id="path863"
         d="m 62.095114,44.546493 c 0.726007,-0.0962 0.673618,-2.409858 1.639155,-2.892629 0.110187,-0.05509 0.396274,-0.20343 0.482107,-0.289263 0.02273,-0.02273 -0.02273,-0.07369 0,-0.09642 0.228182,-0.228181 -0.188265,1.41427 -0.192842,1.446316 -0.118466,0.82925 -0.04329,0.173149 -0.192844,0.771367 -0.232365,0.929467 0.263524,1.979898 -0.192842,2.89263 -0.169699,0.3394 -0.425151,0.521574 -0.674946,0.771367 -0.157719,0.157719 -0.258934,0.548199 -0.385684,0.674949 -0.02273,0.02273 -0.07369,-0.02273 -0.09642,0 -0.132446,0.132446 -0.242278,0.338699 -0.385683,0.482104 -0.142717,0.142717 -0.320714,0.361059 -0.482105,0.482105 -0.07272,0.05454 -0.283749,0.192841 -0.192842,0.192841 0.09642,0 0,-0.192841 0,-0.289262 0,-0.385684 0,-0.771367 0,-1.157054 0,-0.55485 -0.01273,-2.39779 0.289263,-2.699787 0.113632,-0.113632 0.257122,-0.192842 0.385684,-0.289263 z"
         style="display:inline;fill:#317ce5;fill-opacity:0.992157;stroke:#34e5b2;stroke-width:0.26458px;stroke-linecap:butt;stroke-linejoin:miter;stroke-opacity:1" />
      <path
         inkscape:connector-curvature="0"
         id="path865"
         d="m 50.813859,44.739335 c 0.0272,0.437142 -0.382188,0.56804 -0.482104,0.867791 -0.01447,0.04342 -0.05302,0.621927 0,0.674946 0.04811,0.04811 0.406603,0 0.482104,0 0.779024,0 1.533252,-0.853564 1.928418,-1.446316 0.24422,-0.36633 -1.335642,-0.496355 -1.446314,-0.385684 -0.17803,0.178034 0.04396,0.02622 -0.482104,0.289263 z"
         style="display:inline;fill:#469036;fill-opacity:0.992157;stroke:#1eff00;stroke-width:0.26458px;stroke-linecap:butt;stroke-linejoin:miter;stroke-opacity:1" />
      <path
         inkscape:connector-curvature="0"
         id="path867"
         d="m 109.16905,19.447072 5.71648,-0.730151 -0.25798,3.147651 -5.7182,0.746421 z"
         style="display:inline;fill:#f0ebd9;fill-opacity:0.992157;stroke:#000000;stroke-width:0.26458px;stroke-linecap:butt;stroke-linejoin:miter;stroke-opacity:1" />
      <path
         inkscape:connector-curvature="0"
         id="path869"
         d="m 110.82819,12.131683 2.24271,1.735769 2.66773,2.532217 0.8784,2.916801 1.79873,0.192254 0.21731,-6.46778 z"
         style="display:inline;fill:#f0ebd9;fill-opacity:0.992157;stroke:#000000;stroke-width:0.26458px;stroke-linecap:butt;stroke-linejoin:miter;stroke-opacity:1" />
      <path
         inkscape:connector-curvature="0"
         id="path919"
         d="m 433.27614,46.848516 c -7.15472,-0.859718 -13.21048,-1.572561 -13.45725,-1.584095 -0.54435,-0.02544 -4.59219,-7.970661 -4.06081,-7.970661 0.61345,0 35.5744,5.853144 35.71181,5.978853 0.0694,0.06354 -0.66228,1.263882 -1.62607,2.667433 -1.41826,2.065371 -1.92459,2.544254 -2.65573,2.511752 -0.49685,-0.02209 -6.75723,-0.743564 -13.91195,-1.603282 z"
         style="display:inline;vector-effect:none;fill:#111111;fill-opacity:0.992157;stroke:#ffffff;stroke-width:0.722699;stroke-linecap:round;stroke-linejoin:round;stroke-dasharray:0.722699, 2.1681;paint-order:stroke markers fill;stop-color:#000000"
         transform="scale(0.26458)" />
      <path
         inkscape:connector-curvature="0"
         id="path921"
         d="m 109.65862,41.704319 6.36092,1.612629 0.49274,-0.67193 -6.58489,-1.747012 z"
         style="display:inline;fill:#fff100;fill-opacity:0.992157;stroke:#000000;stroke-width:0.26458px;stroke-linecap:butt;stroke-linejoin:miter;stroke-opacity:1" />
      <path
         inkscape:connector-curvature="0"
         id="path923"
         d="m 110.31699,39.545966 6.78241,2.036887 0.43338,-0.520056 -6.95576,-2.231909 z"
         style="display:inline;fill:#fff100;fill-opacity:0.992157;stroke:#000000;stroke-width:0.26458px;stroke-linecap:butt;stroke-linejoin:miter;stroke-opacity:1" />
      <path
         inkscape:connector-curvature="0"
         id="path925"
         d="m 105.15977,39.545966 0.88843,0.498386 0.0867,-0.628401 -0.75841,-0.455048 z"
         style="display:inline;fill:#fff100;fill-opacity:0.992157;stroke:#000000;stroke-width:0.26458px;stroke-linecap:butt;stroke-linejoin:miter;stroke-opacity:1" />
      <path
         inkscape:connector-curvature="0"
         id="path927"
         d="m 105.80984,38.029134 0.6284,0.411713 0.065,-0.563397 -0.54172,-0.325034 z"
         style="display:inline;fill:#fff100;fill-opacity:0.992157;stroke:#000000;stroke-width:0.26458px;stroke-linecap:butt;stroke-linejoin:miter;stroke-opacity:1" />
      <path
         sodipodi:nodetypes="ccccccc"
         inkscape:connector-curvature="0"
         id="path838"
         d="M 0.56062636,40.73884 C 7.6333063,49.252732 13.174616,60.659212 21.944634,65.967022 L 111.75747,65.780146 C 121.9949,60.380801 128.61323,55.038044 134.36342,49.708861 119.3449,52.957306 104.09913,52.569807 88.877413,52.567057 58.322842,52.157491 46.972201,51.268388 32.53481,50.456363 Z"
         style="fill:url(#linearGradient969);fill-opacity:1;stroke:#ffffff;stroke-width:0.276204px;stroke-linecap:butt;stroke-linejoin:miter;stroke-opacity:1" />
    </g>
  </g>
</svg>
