<?xml version="1.0" encoding="UTF-8" standalone="no"?>
<svg
   xmlns:dc="http://purl.org/dc/elements/1.1/"
   xmlns:cc="http://creativecommons.org/ns#"
   xmlns:rdf="http://www.w3.org/1999/02/22-rdf-syntax-ns#"
   xmlns:svg="http://www.w3.org/2000/svg"
   xmlns="http://www.w3.org/2000/svg"
   xmlns:sodipodi="http://sodipodi.sourceforge.net/DTD/sodipodi-0.dtd"
   xmlns:inkscape="http://www.inkscape.org/namespaces/inkscape"
   inkscape:version="1.0alpha2 (863a58d, 2019-08-17)"
   sodipodi:docname="clouds_lighthouse_src.svg"
   id="svg8"
   version="1.1"
   viewBox="0 0 210 297"
   height="297mm"
   width="210mm">
  <defs
     id="defs2" />
  <sodipodi:namedview
     inkscape:window-maximized="0"
     inkscape:window-y="23"
     inkscape:window-x="0"
     inkscape:window-height="881"
     inkscape:window-width="1680"
     showgrid="false"
     inkscape:document-rotation="0"
     inkscape:current-layer="layer1"
     inkscape:document-units="mm"
     inkscape:cy="253.01425"
     inkscape:cx="281.70891"
     inkscape:zoom="1.2527748"
     inkscape:pageshadow="2"
     inkscape:pageopacity="0.0"
     borderopacity="1.0"
     bordercolor="#666666"
     pagecolor="#ffffff"
     id="base" />
  <metadata
     id="metadata5">
    <rdf:RDF>
      <cc:Work
         rdf:about="">
        <dc:format>image/svg+xml</dc:format>
        <dc:type
           rdf:resource="http://purl.org/dc/dcmitype/StillImage" />
      </cc:Work>
    </rdf:RDF>
  </metadata>
  <g
     style="display:none"
     sodipodi:insensitive="true"
     inkscape:label="Layer 2"
     id="layer2"
     inkscape:groupmode="layer">
    <rect
       style="vector-effect:none;fill:#b2ffff;fill-opacity:1;stroke:none;stroke-width:0.214986;stroke-linecap:round;stroke-linejoin:round;paint-order:stroke markers fill;stop-color:#000000"
       id="rect872"
       width="235.53845"
       height="118.56702"
       x="1.0799037"
       y="6.5774703" />
  </g>
  <g
     id="layer1"
     inkscape:groupmode="layer"
     inkscape:label="Layer 1">
    <g
       inkscape:export-ydpi="299.96872"
       inkscape:export-xdpi="299.96872"
       id="g1284">
      <ellipse
         style="vector-effect:none;fill:#e6e6e6;stroke:none;stroke-width:0.165;stroke-linecap:round;stroke-linejoin:round;paint-order:stroke markers fill;stop-color:#000000"
         id="path833"
         cx="52.512199"
         cy="57.763424"
         rx="9.3969202"
         ry="7.7386403" />
      <ellipse
         ry="7.7386408"
         rx="9.3969202"
         cy="56.887096"
         cx="53.176193"
         id="path833-3"
         style="vector-effect:none;fill:#ffffff;fill-opacity:1;stroke:none;stroke-width:0.165;stroke-linecap:round;stroke-linejoin:round;paint-order:stroke markers fill;stop-color:#000000" />
      <ellipse
         ry="6.1692214"
         rx="8.0621767"
         cy="60.04739"
         cx="61.071526"
         id="path833-2"
         style="vector-effect:none;fill:#e6e6e6;stroke:none;stroke-width:0.136458;stroke-linecap:round;stroke-linejoin:round;paint-order:stroke markers fill;stop-color:#000000" />
      <ellipse
         style="vector-effect:none;fill:#ffffff;fill-opacity:1;stroke:none;stroke-width:0.136458;stroke-linecap:round;stroke-linejoin:round;paint-order:stroke markers fill;stop-color:#000000"
         id="path833-3-6"
         cx="61.641205"
         cy="59.348785"
         rx="8.0621767"
         ry="6.1692219" />
      <ellipse
         ry="6.1692219"
         rx="8.0621767"
         cy="52.235821"
         cx="58.039803"
         id="path833-3-6-9"
         style="vector-effect:none;fill:#ffffff;fill-opacity:1;stroke:none;stroke-width:0.136458;stroke-linecap:round;stroke-linejoin:round;paint-order:stroke markers fill;stop-color:#000000" />
    </g>
    <ellipse
       ry="6.1420116"
       rx="7.5009227"
       cy="91.806213"
       cx="21.554502"
       id="path833-7-3"
       style="vector-effect:none;fill:#e6e6e6;stroke:none;stroke-width:0.131332;stroke-linecap:round;stroke-linejoin:round;paint-order:stroke markers fill;stop-color:#000000" />
    <g
       inkscape:export-ydpi="300.50888"
       inkscape:export-xdpi="300.50888"
       id="g1292">
      <ellipse
         ry="6.1420112"
         rx="7.5009222"
         cy="89.436455"
         cx="56.675014"
         id="path833-7"
         style="vector-effect:none;fill:#e6e6e6;stroke:none;stroke-width:0.131332;stroke-linecap:round;stroke-linejoin:round;paint-order:stroke markers fill;stop-color:#000000" />
      <ellipse
         style="vector-effect:none;fill:#ffffff;stroke:none;stroke-width:0.131332;stroke-linecap:round;stroke-linejoin:round;paint-order:stroke markers fill;stop-color:#000000"
         id="path833-7-0"
         cx="57.279095"
         cy="88.812531"
         rx="7.5009227"
         ry="6.1420116" />
      <ellipse
         ry="6.1420121"
         rx="7.5009232"
         cy="91.207474"
         cx="64.463928"
         id="path833-7-3-6"
         style="vector-effect:none;fill:#e6e6e6;stroke:none;stroke-width:0.131332;stroke-linecap:round;stroke-linejoin:round;paint-order:stroke markers fill;stop-color:#000000" />
      <ellipse
         style="vector-effect:none;fill:#ffffff;stroke:none;stroke-width:0.131332;stroke-linecap:round;stroke-linejoin:round;paint-order:stroke markers fill;stop-color:#000000"
         id="path833-7-3-6-9"
         cx="64.663506"
         cy="90.608734"
         rx="7.5009236"
         ry="6.1420121" />
      <ellipse
         ry="5.5432758"
         rx="6.3034511"
         cy="86.018433"
         cx="59.674038"
         id="path833-7-3-6-9-6"
         style="vector-effect:none;fill:#ffffff;stroke:none;stroke-width:0.114374;stroke-linecap:round;stroke-linejoin:round;paint-order:stroke markers fill;stop-color:#000000" />
      <ellipse
         style="vector-effect:none;fill:#ffffff;stroke:none;stroke-width:0.0846806;stroke-linecap:round;stroke-linejoin:round;paint-order:stroke markers fill;stop-color:#000000"
         id="path833-7-3-6-9-6-7"
         cx="66.559502"
         cy="87.016327"
         rx="4.4074535"
         ry="4.3458033" />
    </g>
    <g
       inkscape:export-ydpi="300"
       inkscape:export-xdpi="300"
       id="g1299">
      <ellipse
         ry="6.1420121"
         rx="7.5009232"
         cy="86.617172"
         cx="98.991043"
         id="path833-7-3-4"
         style="vector-effect:none;fill:#e6e6e6;stroke:none;stroke-width:0.131332;stroke-linecap:round;stroke-linejoin:round;paint-order:stroke markers fill;stop-color:#000000" />
      <ellipse
         style="vector-effect:none;fill:#ffffff;stroke:none;stroke-width:0.131332;stroke-linecap:round;stroke-linejoin:round;paint-order:stroke markers fill;stop-color:#000000"
         id="path833-7-3-4-8"
         cx="98.991043"
         cy="85.818848"
         rx="7.5009236"
         ry="6.1420121" />
      <ellipse
         ry="4.5453825"
         rx="4.5072422"
         cy="83.623482"
         cx="93.602417"
         id="path833-7-3-5"
         style="vector-effect:none;fill:#e6e6e6;stroke:none;stroke-width:0.0875787;stroke-linecap:round;stroke-linejoin:round;paint-order:stroke markers fill;stop-color:#000000" />
      <ellipse
         style="vector-effect:none;fill:#ffffff;stroke:none;stroke-width:0.0875787;stroke-linecap:round;stroke-linejoin:round;paint-order:stroke markers fill;stop-color:#000000"
         id="path833-7-3-5-8"
         cx="94.201157"
         cy="83.423904"
         rx="4.5072422"
         ry="4.545383" />
      <ellipse
         ry="5.2439084"
         rx="7.2015548"
         cy="81.727486"
         cx="101.08663"
         id="path833-7-3-5-8-4"
         style="vector-effect:none;fill:#ffffff;stroke:none;stroke-width:0.118905;stroke-linecap:round;stroke-linejoin:round;paint-order:stroke markers fill;stop-color:#000000" />
    </g>
    <g
       transform="matrix(0.31601431,0,0,0.23578212,93.49782,83.737982)"
       id="g1277">
      <path
         style="fill:none;stroke:#000000;stroke-width:0.264583px;stroke-linecap:butt;stroke-linejoin:miter;stroke-opacity:1"
         d="m 142.84327,66.720463 c -5.78606,42.852977 -6.14769,42.852977 -6.14769,42.852977 l 20.07039,-0.18081 -7.95583,-42.852981 z"
         id="path1167"
         inkscape:connector-curvature="0" />
      <path
         style="fill:none;stroke:#000000;stroke-width:0.264583px;stroke-linecap:butt;stroke-linejoin:miter;stroke-opacity:1"
         d="m 142.84327,66.720463 -0.90407,-4.520356 1.2657,-1.084885 5.0628,-0.180816 0.90407,1.265701 -0.36163,4.339542 z"
         id="path1169"
         inkscape:connector-curvature="0" />
      <path
         style="fill:none;stroke:#000000;stroke-width:0.264583px;stroke-linecap:butt;stroke-linejoin:miter;stroke-opacity:1"
         d="m 137.96128,102.88332 c 1.56591,0.39147 -0.12936,-0.0879 1.44652,0.54244 0.52724,0.2109 5.27438,0.0375 6.14768,-0.18081 0.90829,-0.22708 1.9631,0.15498 2.89303,0 0.33949,-0.0566 1.90764,-0.27426 2.16977,-0.36163 0.0572,-0.019 -0.0566,-0.16022 0,-0.18082 1.08594,-0.39488 1.76443,-0.40733 2.71222,-0.72326 0.30791,-0.10263 0.59615,-0.25899 0.90407,-0.36162 0.0572,-0.0191 0.18081,0.0603 0.18081,0 0,-0.0603 -0.24108,0 -0.18081,0 0.98506,0 0.22284,0.1598 0.90407,-0.18082"
         id="path1181"
         inkscape:connector-curvature="0" />
      <path
         style="fill:none;stroke:#000000;stroke-width:0.264583px;stroke-linecap:butt;stroke-linejoin:miter;stroke-opacity:1"
         d="m 138.86535,96.012374 c 2.42437,0.01021 5.06577,0.420913 7.41339,-0.361629 0.21698,-0.07232 0.50628,0.07233 0.72326,0 0.64468,0.6796 0.76346,-0.413875 1.08488,-0.542441 0.59613,-0.238451 1.44385,-0.269891 1.98896,-0.542444 1.30476,-0.65238 -0.31929,-0.08926 1.2657,-0.723257 0.25806,-0.103224 0.63687,-0.09175 0.90407,-0.180813 0.0539,-0.01796 0.97106,-0.475459 0.90407,-0.542444 -0.0603,-0.06027 -0.26605,0.180814 -0.18081,0.180814 0.13477,0 0.26633,-0.08552 0.36163,-0.180814 0.0426,-0.04262 -0.24109,0 -0.18082,0 0.18082,0 0.41459,0.127855 0.54245,0 0.0426,-0.04262 0,-0.120544 0,-0.180813"
         id="path1183"
         inkscape:connector-curvature="0" />
      <path
         style="fill:none;stroke:#000000;stroke-width:0.264583px;stroke-linecap:butt;stroke-linejoin:miter;stroke-opacity:1"
         d="m 140.13105,88.59899 c 1.08489,-0.06027 2.16905,-0.13558 3.25466,-0.180816 0.61012,-0.02543 4.92565,-0.405286 5.24362,-0.723257 0.0426,-0.04262 -0.0572,-0.161753 0,-0.180814 0.3478,-0.115935 0.73708,-0.06488 1.08488,-0.180813 0.0572,-0.01905 -0.0426,-0.138197 0,-0.180814 0.21731,-0.217313 0.6216,-0.05975 0.90407,-0.180816 0.6953,-0.297984 1.05104,-0.723257 1.80814,-0.723257"
         id="path1185"
         inkscape:connector-curvature="0" />
      <path
         style="fill:none;stroke:#000000;stroke-width:0.264583px;stroke-linecap:butt;stroke-linejoin:miter;stroke-opacity:1"
         d="m 140.85431,82.27049 c 0.78353,-0.180813 1.5587,-0.402698 2.35059,-0.542443 0.52638,-0.09289 1.1,0.08789 1.62733,0 0.69811,-0.116353 1.08947,-0.273513 1.62732,-0.542443 0.48711,-0.243555 1.19604,-0.145979 1.62733,-0.361628 0.67945,-0.339725 1.32501,-0.752909 1.98896,-1.084887 0.22295,-0.111471 0.90407,-0.360635 0.90407,-0.54244"
         id="path1187"
         inkscape:connector-curvature="0" />
      <path
         style="fill:none;stroke:#000000;stroke-width:0.264583px;stroke-linecap:butt;stroke-linejoin:miter;stroke-opacity:1"
         d="m 141.75838,75.218734 c 0.95275,-0.983142 2.06143,-0.01206 3.07385,-0.180814 1.3059,-0.217652 5.04365,-1.788999 5.0628,-1.808144"
         id="path1189"
         inkscape:connector-curvature="0" />
      <path
         style="fill:none;stroke:#000000;stroke-width:0.264583px;stroke-linecap:butt;stroke-linejoin:miter;stroke-opacity:1"
         d="m 142.12001,71.240821 c 1.68142,0.127585 3.17466,-0.112654 4.70117,-0.723257 0.45781,-0.183123 0.72705,-0.123071 1.08489,-0.36163 0.22427,-0.149513 0.46755,-0.276392 0.72326,-0.361627 0.0572,-0.01905 0.18081,0.06027 0.18081,0 0,-0.06027 -0.22343,0.04262 -0.18081,0 0.0112,-0.509127 0.40767,-0.04605 0.54244,-0.180816 0.72951,-0.729507 -0.23367,-2.050129 -0.36163,-3.073842"
         id="path1193"
         inkscape:connector-curvature="0" />
      <path
         style="vector-effect:none;fill:#008080;fill-opacity:1;stroke:none;stroke-width:0.426179;stroke-linecap:round;stroke-linejoin:round;paint-order:stroke markers fill;stop-color:#000000"
         d="m 518.18837,410.80345 c 0.24782,-1.23126 1.08894,-6.39026 1.86914,-11.46445 0.78021,-5.07419 1.50167,-9.31555 1.60325,-9.42524 0.10157,-0.1097 1.47324,0.31613 3.04815,0.94629 2.47099,0.98869 4.52001,1.08344 14.94909,0.6913 6.64709,-0.24993 14.13005,-0.4259 16.62881,-0.39103 4.79239,0.0669 12.75403,-1.11978 13.9084,-2.07299 0.76407,-0.63092 10.43708,-3.36511 13.77141,-3.89264 1.68373,-0.26639 2.23432,-0.0652 2.52297,0.92209 1.14258,3.90784 4.69723,25.60301 4.26569,26.03489 -0.2822,0.28242 -16.82658,0.5983 -36.76529,0.70196 l -36.2522,0.18848 z"
         id="path1197"
         inkscape:connector-curvature="0"
         transform="scale(0.26458333)" />
      <path
         style="vector-effect:none;fill:#ffffff;fill-opacity:1;stroke:none;stroke-width:0.426179;stroke-linecap:round;stroke-linejoin:round;paint-order:stroke markers fill;stop-color:#000000"
         d="m 525.86743,389.48107 c -1.07659,-0.59199 -2.38358,-1.07635 -2.90442,-1.07635 -0.52083,0 -0.94697,-0.43664 -0.94697,-0.97032 0,-1.16746 2.63306,-19.93456 3.09223,-22.03989 0.31402,-1.43978 0.69995,-1.4953 13.13774,-1.89013 20.57546,-0.65316 20.0014,-0.59937 21.00516,-1.96824 0.50064,-0.68275 2.49517,-1.65945 4.43229,-2.17045 1.93711,-0.511 4.28067,-1.42618 5.20791,-2.03373 1.51825,-0.9948 11.36967,-4.63283 11.56508,-4.27088 0.5804,1.07504 5.15311,28.79171 4.87125,29.52623 -0.21329,0.55584 -0.83298,0.83979 -1.37709,0.631 -0.5441,-0.20879 -1.86273,0.0611 -2.93028,0.59978 -1.06756,0.53867 -4.17332,1.5173 -6.9017,2.17473 -2.72837,0.65743 -5.11205,1.44025 -5.29705,1.73959 -0.49682,0.80386 -6.66849,1.56633 -13.661,1.68771 -3.38279,0.0587 -10.9172,0.33864 -16.74312,0.62204 -9.02484,0.439 -10.88229,0.35595 -12.55003,-0.56109 z"
         id="path1199"
         inkscape:connector-curvature="0"
         transform="scale(0.26458333)" />
      <path
         style="vector-effect:none;fill:#ffffff;fill-opacity:1;stroke:none;stroke-width:0.426179;stroke-linecap:round;stroke-linejoin:round;paint-order:stroke markers fill;stop-color:#000000"
         d="m 529.76581,331.96187 c 0.21364,-1.09297 0.92391,-6.06627 1.57837,-11.05179 l 1.18993,-9.06458 2.77083,-0.74914 c 1.52395,-0.41202 5.56744,-0.99002 8.98553,-1.28443 3.41808,-0.29442 7.17001,-1.02932 8.33762,-1.63311 1.1676,-0.6038 2.86717,-1.09781 3.7768,-1.09781 0.90964,0 4.38458,-1.36305 7.7221,-3.02901 3.33752,-1.66595 6.25788,-2.81918 6.48969,-2.56272 0.23181,0.25646 1.24695,5.07919 2.25587,10.71718 1.00891,5.63798 2.00581,10.94282 2.21533,11.78852 0.29214,1.17916 0.0849,1.53822 -0.88907,1.54018 -0.69852,10e-4 -2.27692,0.61646 -3.50757,1.36679 -1.23065,0.75033 -2.99893,1.36423 -3.92951,1.36423 -0.93058,0 -1.69196,0.30753 -1.69196,0.68339 0,0.37587 -0.70731,0.68339 -1.5718,0.68339 -0.86449,0 -1.90609,0.33429 -2.31466,0.74286 -1.07022,1.07022 -12.07627,2.58203 -22.67299,3.11441 l -9.13295,0.45884 z"
         id="path1201"
         inkscape:connector-curvature="0"
         transform="scale(0.26458333)" />
      <path
         style="vector-effect:none;fill:#ffffff;fill-opacity:1;stroke:none;stroke-width:0.426179;stroke-linecap:round;stroke-linejoin:round;paint-order:stroke markers fill;stop-color:#000000"
         d="m 544.2263,282.42215 c -1.1276,-0.25572 -3.23923,-0.50133 -4.69251,-0.54581 l -2.64234,-0.0809 0.4631,-4.6129 c 0.70535,-7.02581 0.69138,-7.00331 4.35508,-7.01487 3.97482,-0.0125 10.59136,-1.54183 16.09634,-3.72033 6.3975,-2.53171 5.9518,-2.76623 7.22193,3.79995 l 1.13708,5.87837 -7.5805,2.87467 c -9.01802,3.4198 -11.62614,4.04135 -14.35818,3.42177 z"
         id="path1203"
         inkscape:connector-curvature="0"
         transform="scale(0.26458333)" />
      <path
         style="vector-effect:none;fill:#c83737;fill-opacity:1;stroke:none;stroke-width:0.426179;stroke-linecap:round;stroke-linejoin:round;paint-order:stroke markers fill;stop-color:#000000"
         d="m 525.90114,361.92326 c -0.16276,-0.2819 0.51562,-6.20179 1.5075,-13.15531 l 1.80343,-12.64276 5.45694,-0.52124 c 22.64111,-2.16265 25.90713,-2.58692 27.38922,-3.55802 0.87817,-0.5754 2.22254,-1.04618 2.9875,-1.04618 0.76495,0 1.39082,-0.30753 1.39082,-0.68339 0,-0.37587 0.62731,-0.6834 1.39401,-0.6834 0.76671,0 2.64846,-0.63997 4.18167,-1.42215 1.53321,-0.78219 3.01683,-1.16659 3.29694,-0.85424 0.28011,0.31235 1.33679,5.18081 2.34817,10.8188 1.01139,5.63799 1.97272,10.7143 2.1363,11.28069 0.33427,1.15742 -3.70521,3.438 -8.32142,4.69805 -1.55284,0.42386 -3.19099,1.21364 -3.64033,1.75506 -0.44933,0.54142 -2.49507,1.33277 -4.54607,1.75856 -2.05101,0.42578 -4.28741,1.37342 -4.96978,2.10586 -0.69642,0.74752 -1.70181,1.15475 -2.29189,0.92831 -0.57817,-0.22186 -3.37937,0.0775 -6.22488,0.66526 -5.35411,1.10592 -23.33906,1.52442 -23.89813,0.5561 z"
         id="path1205"
         inkscape:connector-curvature="0"
         transform="scale(0.26458333)" />
      <path
         style="vector-effect:none;fill:#c83737;fill-opacity:1;stroke:none;stroke-width:0.426179;stroke-linecap:round;stroke-linejoin:round;paint-order:stroke markers fill;stop-color:#000000"
         d="m 532.96664,309.30204 c 0.11215,-3.52351 3.50191,-24.46421 4.04863,-25.01093 0.40437,-0.40437 2.03851,-0.61729 3.63143,-0.47315 7.15223,0.6472 9.713,0.23609 17.73227,-2.8468 l 8.00215,-3.07629 0.67764,3.48794 c 0.37271,1.91837 1.16441,6.10192 1.75934,9.29678 0.59493,3.19486 1.19881,6.35677 1.34194,7.02646 0.3232,1.51211 -8.6221,6.26825 -15.34116,8.15678 -8.17167,2.29682 -8.76732,2.41776 -10.38484,2.10855 -0.8856,-0.16929 -3.69704,0.17617 -6.24766,0.7677 -5.37325,1.24614 -5.24104,1.23188 -5.21974,0.56296 z"
         id="path1207"
         inkscape:connector-curvature="0"
         transform="scale(0.26458333)" />
      <path
         style="vector-effect:none;fill:#c83737;fill-opacity:1;stroke:none;stroke-width:0.426179;stroke-linecap:round;stroke-linejoin:round;paint-order:stroke markers fill;stop-color:#000000"
         d="m 538.6712,266.99336 c 0.21418,-1.06754 0.73112,-4.55446 1.14875,-7.74869 0.41763,-3.19424 0.83661,-5.88499 0.93107,-5.97945 0.0945,-0.0945 4.81828,-0.37286 10.49739,-0.61867 l 10.32565,-0.44693 0.39971,1.64263 c 0.21984,0.90345 0.63086,3.0265 0.91339,4.71789 l 0.51368,3.07527 -3.43674,1.80504 c -4.64644,2.44039 -11.34154,4.41079 -17.00158,5.00363 l -4.68074,0.49027 z"
         id="path1209"
         inkscape:connector-curvature="0"
         transform="scale(0.26458333)" />
      <path
         style="vector-effect:none;fill:#c83737;fill-opacity:1;stroke:none;stroke-width:0.426179;stroke-linecap:round;stroke-linejoin:round;paint-order:stroke markers fill;stop-color:#000000"
         d="m 539.80717,261.48967 c 0.68662,-4.36626 1.50091,-7.39361 2.08882,-7.76579 0.52994,-0.33547 3.30174,-0.61466 6.15957,-0.62041 2.85782,-0.006 7.02508,-0.20164 9.26056,-0.43529 l 4.06452,-0.42483 0.79693,4.28523 c 0.4383,2.35688 0.6591,4.50823 0.49066,4.78078 -1.19284,1.93004 -14.16411,6.22372 -21.21415,7.02218 l -2.77222,0.31397 z"
         id="path1211"
         inkscape:connector-curvature="0"
         transform="scale(0.26458333)" />
      <path
         style="vector-effect:none;fill:#ffffff;fill-opacity:1;stroke:none;stroke-width:0.212786;stroke-linecap:round;stroke-linejoin:round;paint-order:stroke markers fill;stop-color:#000000"
         d="m 540.15144,250.00849 c -0.18764,-0.89115 -0.91909,-4.52743 -1.62546,-8.08064 l -1.28429,-6.46036 2.17074,-1.94761 2.17074,-1.9476 8.96738,-0.24907 c 4.93206,-0.137 9.16517,-0.17295 9.40692,-0.0799 0.24175,0.093 1.03951,1.04096 1.77281,2.10645 l 1.33327,1.93726 -0.61772,7.79271 -0.61772,7.7927 -9.41639,0.21559 c -5.17902,0.11858 -9.97951,0.28875 -10.66776,0.37816 l -1.25136,0.16258 z"
         id="path1213"
         inkscape:connector-curvature="0"
         transform="scale(0.26458333)" />
    </g>
  </g>
</svg>
